<?xml version="1.0" encoding="UTF-8"?>
<svg id="Layer_1" data-name="Layer 1" xmlns="http://www.w3.org/2000/svg" xmlns:xlink="http://www.w3.org/1999/xlink" viewBox="0 0 616.25 850.18">
  <defs>
    <style>
      .cls-1 {
        fill: url(#linear-gradient);
      }

      .cls-2 {
        fill: #fbb361;
      }

      .cls-3 {
        fill: #46c2dd;
      }

      .cls-4 {
        fill: url(#linear-gradient-2);
      }
    </style>
    <linearGradient id="linear-gradient" x1="0" y1="425.09" x2="614.31" y2="425.09" gradientUnits="userSpaceOnUse">
      <stop offset="0" stop-color="#00bbe2"/>
      <stop offset="1" stop-color="#3360ad"/>
    </linearGradient>
    <linearGradient id="linear-gradient-2" x1="109.41" y1="425.09" x2="520.41" y2="425.09" gradientUnits="userSpaceOnUse">
      <stop offset="0" stop-color="#f5c39e" stop-opacity=".93"/>
      <stop offset="1" stop-color="#da1d52"/>
    </linearGradient>
  </defs>
  <path class="cls-1" d="m0,0h212.54C474.34,0,614.31,151.63,614.31,421.2s-139.97,428.98-396.58,428.98H0V0Zm204.77,760.75c198.29,0,296.79-124.42,296.79-339.55S403.06,89.42,204.77,89.42h-95.9v671.33h95.9Z"/>
  <path class="cls-3" d="m214.49,1c64.64,0,122.81,9.37,172.87,27.84,49.45,18.25,91.66,45.62,125.45,81.36,33.65,35.59,59.4,79.92,76.52,131.78,17.19,52.06,25.91,112.36,25.91,179.22s-8.69,128.05-25.83,180.99c-17.06,52.69-42.62,97.91-75.97,134.4-33.54,36.7-75.23,64.87-123.92,83.72-49.47,19.16-106.62,28.87-169.86,28.87H2.94V1h211.54m-103.68,760.75h95.9c97.74,0,172.94-30.1,223.51-89.45,49.28-57.85,74.27-142.33,74.27-251.1s-24.99-190.66-74.28-246.74c-50.18-57.09-125.38-86.04-223.5-86.04h-95.9l-1,1v671.33l1,1M214.49,0H1.94v850.18h217.73c256.61,0,396.58-158.11,396.58-428.98S476.28,0,214.49,0h0Zm-103.68,760.75V89.42h95.9c198.29,0,296.79,117.94,296.79,331.78s-98.5,339.55-296.79,339.55h-95.9Z"/>
  <g>
    <path class="cls-4" d="m109.91,761.25l-.5-.5V89.42l.5-.5h141.86c86.73,0,154.02,29.16,199.98,86.66,45.56,57,68.66,139.91,68.66,246.43,0,53.16-5.82,101.37-17.29,143.29-11.43,41.78-28.57,77.64-50.93,106.59-22.5,29.13-50.48,51.49-83.14,66.46-33.16,15.19-71.45,22.9-113.82,22.9H109.91Zm136.67-71.61c64.86,0,114.74-23.6,148.26-70.15,32.72-45.45,49.32-111.88,49.32-197.47s-16.59-149.97-49.31-194.01c-33.26-44.77-83.14-67.47-148.27-67.47h-63.51v529.11h63.51Z"/>
    <path class="cls-2" d="m251.77,89.42c174.73,0,268.14,119.73,268.14,332.6s-93.42,338.74-264.68,338.74H109.91V89.42h141.86m-69.2,600.72h64.01c132.34,0,198.08-98.24,198.08-268.12s-65.74-261.98-198.08-261.98h-64.01v530.11M251.77,88.42H109.91l-1,1v671.33l1,1h145.32c42.44,0,80.8-7.72,114.03-22.94,32.74-15,60.78-37.41,83.33-66.61,22.4-29,39.57-64.92,51.02-106.76,11.48-41.97,17.31-90.22,17.31-143.42s-5.84-100.76-17.36-142.04c-11.5-41.19-28.79-76.42-51.41-104.71-22.73-28.44-51.11-50.22-84.37-64.73-33.62-14.68-72.65-22.12-116.01-22.12h0Zm-68.2,72.61h63.01c64.96,0,114.71,22.63,147.87,67.27,32.66,43.96,49.21,109.13,49.21,193.72s-16.56,151.82-49.22,197.18c-33.42,46.41-83.17,69.94-147.86,69.94h-63.01V161.04h0Z"/>
  </g>
</svg>